REM MD5 27b8b2e77cb77842439e8cc963285b35
FILE "GP Challenge (Europe) (En,Fr,De,It).bin" BINARY
  TRACK 01 MODE2/2352
    INDEX 01 00:00:00
  TRACK 02 AUDIO
    INDEX 00 01:21:22
    INDEX 01 01:23:22
  TRACK 03 AUDIO
    INDEX 00 07:04:51
    INDEX 01 07:06:51
REM LEADOUT 12:29:16
